# xmcd
#
# Track frame offsets: 
#        150
#        12511
#        24041
#        39776
#        59668
#        71518
#        85824
#        95825
#        110229
#        122635
#        135703
#        149546
#        160369
#
# Disc length: 2338 seconds
#
# Revision: 0
# Processed by: cddbd v1.4PL0 Copyright (c) Steve Scherf et al.
# Submitted via: ExactAudioCopy v0.90b3
#
DISCID=b609200d
DTITLE=James Alan Shelton - Song for Greta
DYEAR=2002
DGENRE=Bluegrass
TTITLE0=North Fork of the Holston
TTITLE1=Song for Greta
TTITLE2=Fifty Miles of Elbow Room
TTITLE3=Faded Love
TTITLE4=The Sunset Trail
TTITLE5=Scarborough Fair
TTITLE6=Back up and Push
TTITLE7=Shady Grove
TTITLE8=When You and I Were Young, Maggie
TTITLE9=It Is Better Farther On
TTITLE10=Down Yonder
TTITLE11=Freight Train
TTITLE12=Long Journey Home
EXTD=
EXTT0=
EXTT1=
EXTT2=
EXTT3=
EXTT4=
EXTT5=
EXTT6=
EXTT7=
EXTT8=
EXTT9=
EXTT10=
EXTT11=
EXTT12=
PLAYORDER=
